HIERARCHY
ROOT ui
{
	 OFFSET 0 0 0
	 CHANNELS 3 XPosition YPosition Z Position
	 EndSite
	 {
	 OFFSET 0 -1 0
	 }
}
ROOT li
{
	 OFFSET 0 0 0
	 CHANNELS 3 XPosition YPosition Z Position
	 EndSite
	 {
	 OFFSET 0 -1 0
	 }
}
ROOT ul
{
	 OFFSET 0 0 0
	 CHANNELS 3 XPosition YPosition Z Position
	 EndSite
	 {
	 OFFSET 0 -1 0
	 }
}
ROOT ll
{
	 OFFSET 0 0 0
	 CHANNELS 3 XPosition YPosition Z Position
	 EndSite
	 {
	 OFFSET 0 -1 0
	 }
}
ROOT tt
{
	 OFFSET 0 0 0
	 CHANNELS 3 XPosition YPosition Z Position
	 EndSite
	 {
	 OFFSET 0 -1 0
	 }
}
ROOT tb
{
	 OFFSET 0 0 0
	 CHANNELS 3 XPosition YPosition Z Position
	 EndSite
	 {
	 OFFSET 0 -1 0
	 }
}
ROOT td
{
	 OFFSET 0 0 0
	 CHANNELS 3 XPosition YPosition Z Position
	 EndSite
	 {
	 OFFSET 0 -1 0
	 }
}
ROOT v
{
	 OFFSET 0 0 0
	 CHANNELS 3 XPosition YPosition Z Position
	 EndSite
	 {
	 OFFSET 0 -1 0
	 }
}
ROOT bn
{
	 OFFSET 0 0 0
	 CHANNELS 3 XPosition YPosition Z Position
	 EndSite
	 {
	 OFFSET 0 -1 0
	 }
}
MOTION
Frames: 29
Frame Time: 0.002
0.00509011697769165	-0.001135756015777588	0		0.38597705078125	-2.36702197265625	0		-1.142632568359375	0.024274356842041017	0		-0.9127237548828125	-2.492693359375	0		1.228037353515625	-0.7841587524414062	0		3.043131591796875	0.022561622619628907	0		4.5481572265625	0.009178712844848632	0		5.49403564453125	-0.006289199829101562	0		-0.12345226287841797	5.9145009765625	0		
-0.0736612319946289	-0.0015254850387573242	0		0.3602729797363281	-2.363454833984375	0		-1.129557373046875	0.014108155250549316	0		-0.8646980590820312	-2.50354736328125	0		1.2292965087890626	-0.7841327514648437	0		3.0502666015625	0.015440802574157714	0		4.55256591796875	0.016088207244873046	0		5.49946337890625	0.0015844570398330688	0		-0.12207907104492187	5.9145498046875	0		
0.00770369815826416	-0.0010538599491119384	0		0.36361199951171874	-2.36146533203125	0		-1.12006103515625	0.022004905700683593	0		-0.934249755859375	-2.495110107421875	0		1.1907490234375	-0.7773377075195312	0		3.052018798828125	0.036419254302978515	0		4.56286669921875	0.013869080543518066	0		5.5008046875	0.001524582028388977	0		-0.10544298553466797	5.9242919921875	0		
0.009105578422546386	-0.0010305700302124024	0		0.3670118408203125	-2.35948779296875	0		-1.1186588134765625	0.02204768371582031	0		-0.8579640502929687	-2.4995380859375	0		1.23409033203125	-0.7801565551757812	0		3.03701318359375	0.015707128524780272	0		4.55942626953125	0.021909988403320313	0		5.50220654296875	0.001452947974205017	0		-0.11913156890869141	5.91461279296875	0		
0.010563385009765626	-0.001018862009048462	0		0.39332669067382814	-2.364970947265625	0		-1.1172005615234375	0.022078617095947266	0		-0.9053826904296876	-2.49055322265625	0		1.2334569091796874	-0.7841257934570313	0		3.075718994140625	0.02793988609313965	0		4.56259033203125	0.006807819843292236	0		5.51364306640625	1.752990037202835E-4	0		-0.10237989044189454	5.9243310546875	0		
0.012071250915527344	-0.001018254041671753	0		0.39275640869140627	-2.36693701171875	0		-1.0606636962890625	0.02301923179626465	0		-0.870001220703125	-2.495203125	0		1.2318934326171875	-0.7870861206054688	0		3.034117919921875	0.02273374366760254	0		4.56409814453125	0.0067326979637146	0		5.51515087890625	8.435499668121338E-5	0		-0.11594702911376953	5.91562890625	0		
0.01056241226196289	-0.003968513011932373	0		0.36733187866210937	-2.363423583984375	0		-1.1222979736328125	0.014264939308166504	0		-0.930538818359375	-2.4969814453125	0		1.2334302978515626	-0.787115478515625	0		3.046802978515625	0.029458250045776367	0		4.56564794921875	0.006649803161621093	0		5.5067216796875	0.001182204008102417	0		-0.11336150360107422	5.9126025390625	0		
0.01520042896270752	-0.0010467469692230225	0		0.3729530334472656	-2.359527099609375	0		-1.106681396484375	0.015988310813903808	0		-0.8540708618164062	-2.5014580078125	0		1.2380562744140624	-0.7842125244140625	0		3.068065185546875	0.01300310707092285	0		4.55936669921875	0.013716721534729004	0		5.51243798828125	0.007998981952667236	0		-0.0955171127319336	5.92126953125	0		
0.023932090759277345	0.005788119792938232	0		0.3786115417480469	-2.35463818359375	0		-1.106908447265625	0.025016040802001954	0		-0.9202825927734375	-2.48913720703125	0		1.24477685546875	-0.777356201171875	0		3.070073486328125	0.03392827987670898	0		4.57196044921875	0.013408004760742187	0		5.51403369140625	0.007892535209655762	0		-0.09479573059082032	5.92326416015625	0		
0.01838841247558594	-0.0011049189567565918	0		0.4009709777832031	-2.365086181640625	0		-1.0443863525390624	0.020800466537475585	0		-0.8617943115234376	-2.493276611328125	0		1.2412220458984375	-0.7843053588867187	0		3.0422001953125	0.010429266929626466	0		4.56459423828125	0.015489956855773927	0		5.51148974609375	8.649280071258545E-4	0		-0.10929555511474609	5.91455029296875	0		
-0.05700961303710937	0.001373813033103943	0		0.37353302001953126	-2.36355712890625	0		-1.1159619140625	0.01421599006652832	0		-0.8982518920898438	-2.492553955078125	0		1.2397208251953125	-0.7872979736328125	0		3.063862060546875	0.014959136009216308	0		4.5630244140625	0.00845505714416504	0		5.51305712890625	7.573680281639099E-4	0		-0.1076515350341797	5.914515625	0		
0.02147554588317871	-0.001181157946586609	0		0.401959716796875	-2.36713232421875	0		-1.116264404296875	0.02322760772705078	0		-0.8499684448242187	-2.503506103515625	0		1.24123095703125	-0.7873526611328125	0		3.0612646484375	0.008962197303771973	0		4.5693857421875	2.63043999671936E-4	0		5.51457666015625	6.507049798965454E-4	0		-0.10605982208251953	5.91447705078125	0		
-0.05403683471679688	0.0012934069633483887	0		0.35155352783203125	-2.358156005859375	0		-1.104832763671875	0.022001319885253907	0		-0.9193922119140625	-2.49514111328125	0		1.242675048828125	-0.7874088745117187	0		3.0672490234375	0.03580123519897461	0		4.573251953125	0.02112551689147949	0		5.5201669921875	0.0074657521247863765	0		-0.08836542510986328	5.923119140625	0		
0.024299821853637694	-0.0012675609588623047	0		0.40883001708984373	-2.362306884765625	0		-1.0994029541015624	0.024889726638793946	0		-0.8878755493164062	-2.486768310546875	0		1.2470966796875	-0.7845254516601563	0		3.064089111328125	0.008809266090393066	0		4.57050634765625	0.015113617897033691	0		5.52737939453125	-7.528610229492188E-4	0		-0.10214569854736329	5.91237451171875	0		
-0.051386791229248045	0.0012061350345611572	0		0.3810915222167969	-2.361783447265625	0		-1.11216064453125	0.023132299423217772	0		-0.8439053955078125	-2.501649658203125	0		1.2453092041015625	-0.7875223388671875	0		3.095598876953125	0.020141061782836915	0		4.57178515625	0.01502488899230957	0		5.528658203125	-8.508369922637939E-4	0		-0.10080986785888672	5.91233056640625	0		
0.02675716781616211	-0.0013570530414581299	0		0.4341012573242187	-2.36985595703125	0		-1.1150599365234375	0.01917728042602539	0		-0.855627685546875	-2.495431396484375	0		1.24648095703125	-0.7875776977539063	0		3.06244873046875	0.0037436709403991697	0		4.569826171875	0.008000927925109863	0		5.5198583984375	2.53385990858078E-4	0		-0.10053974151611328	5.914306640625	0		
-0.04913360595703125	0.0011190249919891357	0		0.38126654052734377	-2.363837890625	0		-1.1040069580078125	0.01794526290893555	0		-0.8545726318359375	-2.49546826171875	0		1.24754931640625	-0.787630859375	0		3.0617607421875	0.01571352767944336	0		4.57403857421875	0.014861343383789062	0		5.52093310546875	1.6699999570846558E-4	0		-0.09845895385742187	5.91224462890625	0		
0.02880076026916504	-0.0014425100088119507	0		0.40291964721679685	-2.379293701171875	0		-1.0989595947265625	0.021831256866455078	0		-0.9125888061523437	-2.49333935546875	0		1.2065609130859376	-0.784851806640625	0		3.07756884765625	0.0073569478988647465	0		4.57296875	0.012829225540161132	0		5.5318408203125	-0.0031081750392913817	0		-0.08127591705322265	5.9208857421875	0		
-0.03710383987426758	0.01083967113494873	0		0.3912485046386719	-2.35508251953125	0		-1.094035888671875	0.024718692779541016	0		-0.8337721557617187	-2.495913818359375	0		1.2524327392578125	-0.7847861938476562	0		3.06285205078125	0.028613420486450197	0		4.57999072265625	0.020645641326904298	0		5.53690283203125	0.006742190837860107	0		-0.08035921478271485	5.92184716796875	0		
0.03042995262145996	-0.0015176420211791993	0		0.4128014831542969	-2.365533203125	0		-1.103230224609375	0.026884302139282227	0		-0.9228622436523437	-2.487169677734375	0		1.250135009765625	-0.7877673950195313	0		3.050124755859375	0.0038268139362335205	0		4.57349951171875	0.007732045173645019	0		5.52353125	-3.814300149679184E-5	0		-0.08055126190185546	5.9228310546875	0		
-0.04586766052246094	9.697970151901245E-4	0		0.3844881896972656	-2.3639951171875	0		-1.112540771484375	0.028050941467285158	0		-0.8405136108398438	-2.503818115234375	0		1.244663330078125	-0.7946845092773438	0		3.066789306640625	0.0034688589572906495	0		4.5741669921875	0.007686166763305664	0		5.52419873046875	-8.655299991369248E-5	0		-0.09508229064941406	5.91209619140625	0		
0.028615747451782227	-0.004524145126342773	0		0.38506192016601565	-2.364028076171875	0		-1.1042420654296874	0.013864527702331543	0		-0.9128270263671875	-2.497408203125	0		1.2431802978515625	-0.7976785888671875	0		3.07222705078125	-0.0036652300357818603	0		4.57474365234375	0.007647493839263916	0		5.52477587890625	-1.2649600207805634E-4	0		-0.09449749755859375	5.91206396484375	0		
0.03216714477539063	-0.0016164369583129884	0		0.3875936584472656	-2.3621005859375	0		-1.0955928955078125	0.021672508239746095	0		-0.8374083862304688	-2.501921875	0		1.2518690185546875	-0.78787109375	0		3.06827392578125	0.024395545959472655	0		4.57837451171875	0.014554227828979492	0		5.5252685546875	-1.5915699303150176E-4	0		-0.07879011535644531	5.92273291015625	0		
0.03257935333251953	-0.0016491810083389283	0		0.3900478820800781	-2.360172607421875	0		-1.1029222412109374	0.034793914794921874	0		-0.9088406982421875	-2.493534423828125	0		1.2522821044921875	-0.78790234375	0		3.0731318359375	-0.0037268099784851074	0		4.582904296875	0.020446840286254882	0		5.529818359375	0.0067344198226928715	0		-0.07838514709472656	5.92269970703125	0		
-0.04405588912963867	8.388140201568603E-4	0		0.4152799377441406	-2.36569775390625	0		-1.02396337890625	0.01520089054107666	0		-0.847496826171875	-2.493775146484375	0		1.2464769287109374	-0.7948125610351563	0		3.103693115234375	0.007652507781982422	0		4.575978515625	0.0075656847953796385	0		5.53598876953125	-0.0014022419452667237	0		-0.0932839584350586	5.91196484375	0		
-0.043811996459960936	8.054890036582946E-4	0		0.3865576171875	-2.364156982421875	0		-1.1104853515625	0.02788043212890625	0		-0.8852366943359375	-2.493060791015625	0		1.244664794921875	-0.7978012084960937	0		3.068844970703125	0.00332265305519104	0		4.57622265625	0.007548727035522461	0		5.52625439453125	-2.1846799552440642E-4	0		-0.09402130889892578	5.913951171875	0		
0.030252433776855468	-0.004688154220581055	0		0.4136618041992188	-2.367720703125	0		-1.0335400390625	0.016323827743530275	0		-0.8382741088867187	-2.50402392578125	0		1.2732083740234375	-0.82939501953125	0		3.06414208984375	0.010401222229003906	0		4.57638037109375	0.007536825180053711	0		5.52641259765625	-2.260179966688156E-4	0		-0.09293022918701171	5.9118984375	0		
-0.04357713317871094	7.401599884033203E-4	0		0.3707406921386719	-2.367901123046875	0		-1.0844136962890625	0.019292509078979492	0		-0.9079917602539063	-2.49368017578125	0		1.2873663330078124	-0.8256970825195312	0		3.0828994140625	-0.005985665798187256	0		4.5775556640625	0.012509659767150879	0		5.530626953125	0.006692508220672608	0		-0.07671168518066407	5.92054833984375	0		
0.040528968811035154	0.005050492763519287	0		0.44890298461914063	-2.361469970703125	0		-1.0153442993164064	0.021892425537109374	0		-0.8320452880859375	-2.498216064453125	0		1.2873758544921876	-0.825718994140625	0		3.09931494140625	0.014684350967407226	0		4.57959912109375	0.014469509124755859	0		5.530630859375	0.006698486804962159	0		-0.07770690155029297	5.92253662109375	0		
